<?xml version="1.0" standalone="no"?><!DOCTYPE svg PUBLIC "-//W3C//DTD SVG 1.1//EN" "http://www.w3.org/Graphics/SVG/1.1/DTD/svg11.dtd"><svg t="1715268434409" class="icon" viewBox="0 0 1024 1024" version="1.1" xmlns="http://www.w3.org/2000/svg" p-id="1037" xmlns:xlink="http://www.w3.org/1999/xlink" width="200" height="200"><path d="M792.274824 521.035294a81.317647 81.317647 0 0 1 80.203294 67.945412l40.146823 240.941176A81.317647 81.317647 0 0 1 832.451765 924.611765H191.578353a81.317647 81.317647 0 0 1-80.203294-94.689883l40.146823-240.941176A81.317647 81.317647 0 0 1 231.725176 521.035294a21.082353 21.082353 0 0 1 0 42.164706 39.152941 39.152941 0 0 0-38.610823 32.707765l-40.146824 240.941176A39.152941 39.152941 0 0 0 191.548235 882.447059h640.843294a39.152941 39.152941 0 0 0 38.610824-45.598118l-40.146824-240.941176a39.152941 39.152941 0 0 0-38.610823-32.707765 21.082353 21.082353 0 0 1 0-42.164706z" fill="#3D3C3B" p-id="1038"></path><path d="M512 69.270588c177.995294 0 322.258824 144.263529 322.258824 322.258824 0 106.164706-82.371765 232.809412-245.579295 382.283294l-7.137882 6.415059-15.600941 14.155294a81.317647 81.317647 0 0 1-107.881412 0l-15.781647-13.974588-6.927059-6.625883c-159.533176-146.040471-241.844706-270.305882-245.458823-374.964706L189.741176 391.529412C189.741176 213.534118 334.004706 69.270588 512 69.270588z m0 42.164706A280.094118 280.094118 0 0 0 231.905882 391.529412c0 95.563294 84.148706 220.190118 254.192942 371.260235l0.843294 0.783059 2.379294 1.867294a39.152941 39.152941 0 0 0 45.357176 0l2.349177-1.867294 0.903529-0.783059c166.249412-147.696941 250.368-270.155294 254.042353-364.845176L792.094118 391.529412A280.094118 280.094118 0 0 0 512 111.435294z" fill="#3D3C3B" p-id="1039"></path><path d="M512 391.529412m-120.470588 0a120.470588 120.470588 0 1 0 240.941176 0 120.470588 120.470588 0 1 0-240.941176 0Z" fill="#FA8E00" p-id="1040"></path><path d="M512 249.976471a141.552941 141.552941 0 1 1 0 283.105882 141.552941 141.552941 0 0 1 0-283.105882z m0 42.164705a99.388235 99.388235 0 1 0 0 198.776471 99.388235 99.388235 0 0 0 0-198.776471z" fill="#3D3C3B" p-id="1041"></path><path d="M810.375529 776.854588a21.082353 21.082353 0 0 1 0 42.164706h-90.352941a21.082353 21.082353 0 1 1 0-42.164706h90.352941zM309.217882 777.035294a21.082353 21.082353 0 1 1 0 42.164706h-90.352941a21.082353 21.082353 0 0 1 0-42.164706h90.352941z" fill="#FA8E00" p-id="1042"></path></svg>